<svg width="11" height="9" viewBox="0 0 11 9" fill="none" xmlns="http://www.w3.org/2000/svg">
<path id="Vector" fill-rule="evenodd" clip-rule="evenodd" d="M9.26525 0.21847C9.37332 0.152409 9.50241 0.131394 9.62542 0.159834C9.74843 0.188275 9.85581 0.26396 9.92503 0.371012L10.4082 1.11886C10.4713 1.21661 10.4983 1.33385 10.4844 1.44986C10.4706 1.56587 10.4168 1.67318 10.3325 1.75281L10.331 1.75479L10.3242 1.76123L10.2964 1.78747L10.1866 1.89396C9.57903 2.49204 8.98989 3.10911 8.42003 3.74427C7.34788 4.94084 6.07468 6.50687 5.21775 8.02635C4.97863 8.4503 4.39449 8.54143 4.04801 8.17543L0.883308 4.83832C0.837956 4.79048 0.802544 4.73387 0.779177 4.67186C0.755809 4.60985 0.744965 4.54371 0.747286 4.47737C0.749608 4.41102 0.765049 4.34582 0.792692 4.28566C0.820334 4.22549 0.859614 4.17157 0.908197 4.12711L1.86468 3.25148C1.94874 3.17457 2.05652 3.1297 2.16958 3.12455C2.28263 3.1194 2.39394 3.15429 2.48445 3.22325L4.09925 4.45201C6.62125 1.92763 8.05207 0.958893 9.26525 0.21847Z" fill="#EBEBF5" fill-opacity="0.2"/>
</svg>
