<svg width="11" height="10" viewBox="0 0 11 10" fill="none" xmlns="http://www.w3.org/2000/svg">
<path id="Vector" fill-rule="evenodd" clip-rule="evenodd" d="M9.26525 0.876673C9.37332 0.810612 9.50241 0.789597 9.62542 0.818038C9.74843 0.846478 9.85581 0.922164 9.92503 1.02921L10.4082 1.77707C10.4713 1.87481 10.4983 1.99205 10.4844 2.10806C10.4706 2.22407 10.4168 2.33138 10.3325 2.41101L10.331 2.41299L10.3242 2.41943L10.2964 2.44568L10.1866 2.55216C9.57903 3.15024 8.98989 3.76731 8.42003 4.40248C7.34788 5.59904 6.07468 7.16508 5.21775 8.68455C4.97863 9.1085 4.39449 9.19963 4.04801 8.83363L0.883308 5.49652C0.837956 5.44868 0.802544 5.39207 0.779177 5.33006C0.755809 5.26806 0.744965 5.20191 0.747286 5.13557C0.749608 5.06922 0.765049 5.00403 0.792692 4.94386C0.820334 4.88369 0.859614 4.82977 0.908197 4.78532L1.86468 3.90969C1.94874 3.83278 2.05652 3.78791 2.16958 3.78276C2.28263 3.77761 2.39394 3.8125 2.48445 3.88146L4.09925 5.11021C6.62125 2.58584 8.05207 1.6171 9.26525 0.876673Z" fill="#FE3C72"/>
</svg>
