<svg width="15" height="18" viewBox="0 0 15 18" fill="none" xmlns="http://www.w3.org/2000/svg">
<path id="AutomateIcon" d="M2.24284 16.3744C2.34197 16.4195 2.45887 16.3952 2.53185 16.3144L6.47945 11.9421C6.57032 11.8414 6.5644 11.6867 6.46611 11.5933C6.36782 11.4999 6.21299 11.5019 6.11712 11.5977L2.67019 15.0447L5.28784 9.81855C5.32666 9.74105 5.32256 9.64898 5.27702 9.57523C5.23148 9.50148 5.15099 9.45659 5.06431 9.45659H1.88387L5.72183 1.78066H8.62002L5.73495 7.5508C5.6962 7.6283 5.70034 7.72033 5.74589 7.79404C5.79144 7.86774 5.87191 7.91261 5.95855 7.91261H9.80226L8.93558 8.77929C8.84222 8.87265 8.83755 9.02251 8.92493 9.1215C9.0123 9.22049 9.16159 9.23447 9.26582 9.15342L11.2321 7.62446C11.3163 7.55897 11.3497 7.44726 11.3152 7.3463C11.2808 7.24534 11.186 7.17739 11.0793 7.1771L6.79622 7.16565L9.67374 1.38704C9.71226 1.30969 9.7081 1.21793 9.66274 1.14438C9.61738 1.07083 9.53726 1.02592 9.45085 1.0256L5.40206 1.01099C5.30697 1.01064 5.21991 1.06428 5.17746 1.14937L0.819617 9.88371C0.780953 9.96121 0.78515 10.0532 0.830711 10.1268C0.876272 10.2005 0.956706 10.2453 1.04331 10.2453L4.1836 10.2454L1.43381 15.7214C1.4033 15.7822 1.39885 15.8527 1.42148 15.9168C1.44412 15.9809 1.49188 16.0331 1.55377 16.0612L2.24284 16.3744ZM14.3493 14.0816C14.3237 14.0204 14.2749 13.9718 14.2136 13.9466L13.4065 13.6146C13.4197 13.5052 13.4264 13.3949 13.4264 13.2836C13.4264 13.1722 13.4197 13.0619 13.4065 12.9525L14.2136 12.6205C14.2749 12.5953 14.3237 12.5467 14.3493 12.4855C14.3748 12.4243 14.3749 12.3555 14.3497 12.2941L13.9585 11.344C13.9331 11.2824 13.8842 11.2335 13.8227 11.2081C13.7611 11.1827 13.692 11.1829 13.6306 11.2086L12.8215 11.5479C12.6845 11.3753 12.5296 11.2204 12.357 11.0834L12.6963 10.2743C12.7221 10.2129 12.7223 10.1438 12.6968 10.0823C12.6714 10.0207 12.6225 9.97184 12.561 9.94649L11.6108 9.55526C11.5495 9.53001 11.4806 9.53016 11.4194 9.55568C11.3582 9.5812 11.3097 9.63 11.2844 9.69134L10.9525 10.4985C10.8431 10.4852 10.7327 10.4786 10.6214 10.4786C10.5101 10.4786 10.3997 10.4852 10.2903 10.4985L9.95836 9.69134C9.93313 9.63 9.88456 9.5812 9.82335 9.55568C9.76213 9.53016 9.69329 9.53001 9.63196 9.55526L8.68183 9.94649C8.62026 9.97184 8.57135 10.0207 8.54594 10.0823C8.52053 10.1438 8.52072 10.2129 8.54647 10.2743L8.88576 11.0834C8.71317 11.2204 8.55825 11.3753 8.42125 11.5479L7.61218 11.2086C7.55077 11.1829 7.48163 11.1827 7.42009 11.2081C7.35854 11.2335 7.30968 11.2824 7.28433 11.344L6.89309 12.2941C6.86784 12.3555 6.86799 12.4243 6.89351 12.4855C6.91903 12.5467 6.96783 12.5953 7.02917 12.6205L7.8363 12.9525C7.82303 13.0619 7.81641 13.1722 7.81641 13.2836C7.81641 13.3949 7.82303 13.5052 7.8363 13.6146L7.02917 13.9466C6.96783 13.9718 6.91903 14.0204 6.89351 14.0816C6.86799 14.1428 6.86784 14.2117 6.89309 14.273L7.28433 15.2231C7.30968 15.2847 7.35854 15.3336 7.42009 15.359C7.48163 15.3844 7.55077 15.3842 7.61218 15.3585L8.42125 15.0192C8.55825 15.1918 8.71317 15.3467 8.88576 15.4837L8.54647 16.2928C8.52072 16.3542 8.52053 16.4233 8.54594 16.4849C8.57135 16.5464 8.62026 16.5953 8.68183 16.6206L9.63196 17.0119C9.69329 17.0371 9.76213 17.037 9.82335 17.0114C9.88456 16.9859 9.93313 16.9371 9.95836 16.8758L10.2903 16.0687C10.3997 16.0819 10.5101 16.0885 10.6214 16.0885C10.7327 16.0885 10.8431 16.0819 10.9525 16.0687L11.2844 16.8758C11.3097 16.9371 11.3582 16.9859 11.4194 17.0114C11.4806 17.037 11.5495 17.0371 11.6108 17.0119L12.561 16.6206C12.6225 16.5953 12.6714 16.5464 12.6968 16.4849C12.7223 16.4233 12.7221 16.3542 12.6963 16.2928L12.357 15.4837C12.5296 15.3467 12.6845 15.1918 12.8215 15.0192L13.6306 15.3585C13.692 15.3842 13.7611 15.3844 13.8227 15.359C13.8842 15.3336 13.9331 15.2847 13.9585 15.2231L14.3497 14.273C14.3749 14.2117 14.3748 14.1428 14.3493 14.0816ZM11.1217 14.467C10.9681 14.5328 10.8022 14.5665 10.6214 14.5665C10.4406 14.5665 10.2747 14.5328 10.121 14.467C9.96292 14.3992 9.8274 14.3077 9.7123 14.1926C9.5972 14.0775 9.50572 13.942 9.43795 13.7839C9.37212 13.6303 9.3384 13.4644 9.3384 13.2836C9.3384 13.1028 9.37212 12.9368 9.43795 12.7832C9.50572 12.6251 9.5972 12.4896 9.7123 12.3745C9.8274 12.2594 9.96292 12.1679 10.121 12.1001C10.2747 12.0343 10.4406 12.0006 10.6214 12.0006C10.8022 12.0006 10.9681 12.0343 11.1217 12.1001C11.2799 12.1679 11.4154 12.2594 11.5305 12.3745C11.6456 12.4896 11.7371 12.6251 11.8048 12.7832C11.8707 12.9368 11.9044 13.1028 11.9044 13.2836C11.9044 13.4644 11.8707 13.6303 11.8048 13.7839C11.7371 13.942 11.6456 14.0775 11.5305 14.1926C11.4154 14.3077 11.2799 14.3992 11.1217 14.467Z" fill="#939296" stroke="#939296" stroke-width="0.5" stroke-linejoin="round"/>
</svg>
