<svg width="16" height="13" viewBox="0 0 16 13" fill="none" xmlns="http://www.w3.org/2000/svg">
<path d="M5.04181 12.8205C4.60144 12.8205 4.22433 12.6636 3.91046 12.3497C3.5966 12.0358 3.43994 11.659 3.44047 11.2192V9.61782C3.44047 9.39096 3.51733 9.20067 3.67106 9.04694C3.82479 8.89321 4.01482 8.81662 4.24114 8.81715H5.84248V7.01564C5.37543 6.98895 4.93159 6.8854 4.51097 6.70498C4.09035 6.52456 3.70683 6.25447 3.3604 5.8947V5.01396H2.43963L0.51802 3.09235C0.291163 2.86549 0.177734 2.63196 0.177734 2.39176C0.177734 2.15156 0.291163 1.93805 0.51802 1.75123C0.905011 1.41761 1.38194 1.16407 1.94882 0.990588C2.51569 0.817109 3.11967 0.73037 3.76074 0.73037C4.12104 0.73037 4.4712 0.757059 4.81122 0.810437C5.15124 0.863815 5.49499 0.963899 5.84248 1.11069V0.810437C5.84248 0.58358 5.91935 0.393554 6.07308 0.240359C6.22681 0.0871639 6.41683 0.0102994 6.64315 0.00976562H14.6499C14.8767 0.00976562 15.067 0.0866302 15.2207 0.240359C15.3745 0.394088 15.4511 0.584114 15.4505 0.810437V10.4185C15.4505 11.0857 15.217 11.6529 14.75 12.1199C14.2829 12.587 13.7158 12.8205 13.0485 12.8205H5.04181ZM7.44383 8.81715H11.4472C11.674 8.81715 11.8643 8.89401 12.0181 9.04774C12.1718 9.20147 12.2484 9.3915 12.2479 9.61782V10.4185C12.2479 10.6453 12.3247 10.8356 12.4784 10.9894C12.6322 11.1431 12.8222 11.2197 13.0485 11.2192C13.2754 11.2192 13.4657 11.1423 13.6194 10.9886C13.7731 10.8348 13.8497 10.6448 13.8492 10.4185V1.61111H7.44383V2.09151L12.0077 6.65534C12.1011 6.74875 12.1646 6.83549 12.1982 6.91556C12.2318 6.99562 12.2484 7.09571 12.2479 7.21581C12.2479 7.44266 12.171 7.63296 12.0173 7.78669C11.8635 7.94041 11.6735 8.01701 11.4472 8.01648C11.3271 8.01648 11.227 7.99966 11.1469 7.96604C11.0669 7.93241 10.9801 7.86915 10.8867 7.77628L8.845 5.73456L8.68487 5.8947C8.49804 6.08152 8.30108 6.24833 8.09397 6.39512C7.88686 6.54191 7.67015 6.65534 7.44383 6.7354V8.81715ZM3.1202 3.41262H4.96175V5.13406C5.12188 5.24082 5.28869 5.31421 5.46216 5.35425C5.63564 5.39428 5.81579 5.4143 6.00262 5.4143C6.30954 5.4143 6.58657 5.36759 6.83371 5.27418C7.08086 5.18077 7.32426 5.01396 7.56393 4.77376L7.72406 4.61363L6.60312 3.49269C6.21613 3.10569 5.78243 2.81532 5.30203 2.62156C4.82163 2.42779 4.30786 2.33118 3.76074 2.33171C3.49385 2.33171 3.2403 2.35173 3.0001 2.39176C2.7599 2.4318 2.5197 2.49185 2.2795 2.57191L3.1202 3.41262ZM5.04181 11.2192H10.7666C10.7266 11.0991 10.6964 10.9723 10.6761 10.8388C10.6559 10.7054 10.646 10.5653 10.6465 10.4185H5.04181V11.2192Z" fill="#939296"/>
</svg>
