<svg width="16" height="17" viewBox="0 0 16 17" fill="none" xmlns="http://www.w3.org/2000/svg">
<g id="Icons">
<g id="Vector">
<path d="M11.2661 4.32843L13.8081 1.78638H2.14852C1.95687 1.79117 1.77468 1.87069 1.64084 2.00795C1.50701 2.14522 1.43213 2.32936 1.43219 2.52107V14.6803C1.43219 14.8751 1.5096 15.062 1.64738 15.1998C1.78516 15.3376 1.97203 15.415 2.16689 15.415H14.3261C14.521 15.415 14.7078 15.3376 14.8456 15.1998C14.9834 15.062 15.0608 14.8751 15.0608 14.6803V5.58108L13.8081 6.83374M11.3028 4.32843L13.8081 6.83374L9.4367 11.1538L5.65669 12.4321L6.92037 8.66313L11.3028 4.32843Z" stroke="#EC3A6A" stroke-width="1.60134" stroke-linecap="round" stroke-linejoin="round"/>
<path d="M11.2661 4.32843L13.8081 1.78638H2.14852C1.95687 1.79117 1.77468 1.87069 1.64084 2.00795C1.50701 2.14522 1.43213 2.32936 1.43219 2.52107V14.6803C1.43219 14.8751 1.5096 15.062 1.64738 15.1998C1.78516 15.3376 1.97203 15.415 2.16689 15.415H14.3261C14.521 15.415 14.7078 15.3376 14.8456 15.1998C14.9834 15.062 15.0608 14.8751 15.0608 14.6803V5.58108L13.8081 6.83374M11.3028 4.32843L13.8081 6.83374L9.4367 11.1538L5.65669 12.4321L6.92037 8.66313L11.3028 4.32843Z" stroke="#939296" stroke-width="1.60134" stroke-linecap="round" stroke-linejoin="round"/>
</g>
</g>
</svg>
