<svg width="17" height="16" viewBox="0 0 17 16" fill="none" xmlns="http://www.w3.org/2000/svg">
<path id="Vector" d="M5.86355 0.66763C5.7531 0.66763 5.66355 0.757173 5.66355 0.86763V2.04945H5.17265C4.75312 2.04945 4.35078 2.2161 4.05413 2.51275C3.75748 2.8094 3.59083 3.21174 3.59083 3.63127V10.7649C3.59083 11.1844 3.75748 11.5868 4.05413 11.8834C4.35078 12.1801 4.75312 12.3467 5.17265 12.3467H14.8454C15.2649 12.3467 15.6672 12.1801 15.9639 11.8834C16.2605 11.5868 16.4272 11.1844 16.4272 10.7649V3.63127C16.4272 3.21174 16.2605 2.8094 15.9639 2.51275C15.6672 2.2161 15.2649 2.04945 14.8454 2.04945H14.3545V0.86763C14.3545 0.757173 14.2649 0.66763 14.1545 0.66763H12.7726C12.6622 0.66763 12.5726 0.757173 12.5726 0.86763V2.04945H7.44537V0.86763C7.44537 0.757173 7.35583 0.66763 7.24537 0.66763H5.86355ZM12.5893 6.80233C12.6268 6.76483 12.6479 6.71395 12.6479 6.66091C12.6479 6.60787 12.6268 6.557 12.5893 6.51949L11.857 5.78713C11.8162 5.7463 11.7597 5.72511 11.7021 5.729C11.6445 5.73289 11.5914 5.76148 11.5564 5.80742L9.36267 8.68959L8.06892 7.34236C8.0317 7.30359 7.98044 7.28144 7.92669 7.2809C7.87295 7.28035 7.82125 7.30146 7.78325 7.33947L7.38722 7.73549C7.34972 7.773 7.32865 7.82387 7.32865 7.87691C7.32864 7.92995 7.34972 7.98082 7.38722 8.01833L9.23886 9.86997C9.27637 9.90748 9.32724 9.92855 9.38028 9.92855C9.43332 9.92855 9.4842 9.90748 9.5217 9.86997L12.5893 6.80233ZM12.2817 14.2267C12.2817 14.1165 12.1925 14.027 12.0822 14.0267L1.93291 14.0038L1.87646 5.23635C1.87575 5.1264 1.78642 5.03764 1.67646 5.03764L1.02719 5.03764C0.974148 5.03764 0.923277 5.05871 0.88577 5.09622C0.848263 5.13372 0.827191 5.18459 0.827191 5.23764V13.5285C0.827191 13.9481 0.993847 14.3504 1.29049 14.6471C1.58714 14.9437 1.98948 15.1104 2.40901 15.1104H12.0817C12.1922 15.1104 12.2817 15.0208 12.2817 14.9104L12.2817 14.2267ZM4.77174 11.1652L4.75548 4.06875L15.2812 4.10886L15.236 11.1545L4.77174 11.1652Z"  fill="#939296" stroke="#939296" stroke-width="0.3" stroke-linejoin="round"/>
</svg>
