<svg width="17" height="18" viewBox="0 0 17 18" fill="none" xmlns="http://www.w3.org/2000/svg">
<g id="Icons">
<g id="Group 515181">
<path id="Subtract" fill-rule="evenodd" clip-rule="evenodd" d="M13.3837 5.50143C13.3837 2.88861 11.2219 0.781494 8.56122 0.781494C5.98367 0.781494 3.82186 2.97289 3.82186 5.58572C3.82186 7.10286 4.48704 8.45142 5.56794 9.29426C3.65557 10.0528 1.99264 11.6542 1.16118 13.6771C0.82859 14.5199 0.911736 15.5313 1.41062 16.2899C1.99264 17.1327 2.82411 17.6384 3.82186 17.6384L10.8931 17.6388C10.1338 17.2718 9.50266 16.6815 9.08507 15.953L3.90501 15.9527C3.48928 15.9527 3.07354 15.6999 2.90725 15.3628C2.65781 15.0256 2.65781 14.6885 2.82411 14.2671C3.80226 11.9535 5.97909 10.3689 8.49284 10.3075C9.07093 10.3197 9.63135 10.4125 10.1636 10.5761C10.778 10.1032 11.5278 9.79757 12.345 9.72764C12.0681 9.57211 11.7833 9.43457 11.4925 9.31652C12.6346 8.43156 13.3837 7.03952 13.3837 5.50143ZM5.48479 5.58572C5.48479 3.90002 6.89828 2.46719 8.56122 2.46719C10.2242 2.46719 11.6376 3.90002 11.6376 5.58572C11.6376 7.27143 10.2242 8.70427 8.56122 8.70427C6.89828 8.70427 5.48479 7.27143 5.48479 5.58572Z" fill="#939296"/>
<path id="Vector" d="M15.3008 10.8553V10.7053C15.394 10.7053 15.4795 10.7382 15.5467 10.8054L15.5471 10.8058C15.614 10.8731 15.6469 10.9585 15.6469 11.0517V12.17C15.6469 12.2976 15.6021 12.4117 15.5118 12.502L15.4057 12.396M15.3008 10.8553L10.1458 13.8777C10.1461 13.1509 10.3977 12.5393 10.9027 12.034C11.4077 11.5288 12.0194 11.2772 12.7467 11.2772C13.1314 11.2772 13.491 11.3583 13.8275 11.5201L13.8276 11.5202C14.0614 11.6324 14.2763 11.7738 14.4726 11.9446H14.0611C13.9679 11.9446 13.8827 11.9776 13.8155 12.0443C13.7479 12.1115 13.7146 12.1971 13.7146 12.2907C13.7146 12.3842 13.7479 12.4697 13.8151 12.537C13.8823 12.6041 13.9676 12.6375 14.0611 12.6375H15.1798C15.3076 12.6375 15.4217 12.5924 15.512 12.5018L15.4057 12.396M15.3008 10.8553C15.3566 10.8553 15.4032 10.874 15.4407 10.9115M15.3008 10.8553L15.3015 10.7053C15.2077 10.7048 15.1219 10.738 15.0544 10.8054L15.1605 10.9115L15.0544 10.8054C14.9872 10.8727 14.9539 10.9582 14.9539 11.0517V11.4343C14.6985 11.2069 14.4132 11.0212 14.0982 10.8775C13.6702 10.6821 13.2192 10.5843 12.7467 10.5843C12.291 10.5843 11.8621 10.67 11.4615 10.8425C11.0637 11.0137 10.7149 11.2487 10.4163 11.5473C10.1175 11.8461 9.8824 12.195 9.71112 12.5928L9.71109 12.5929C9.53866 12.9939 9.45292 13.4229 9.45292 13.8781C9.45292 14.3335 9.53865 14.7622 9.71112 15.1626C9.8824 15.5604 10.1175 15.9093 10.4163 16.2081C10.7149 16.5067 11.0637 16.7417 11.4615 16.9129C11.862 17.0853 12.2908 17.1711 12.7464 17.1711L15.4407 10.9115M15.4057 12.396C15.3449 12.457 15.2696 12.4875 15.1798 12.4875H14.0611C14.0056 12.4875 13.9589 12.4687 13.9212 12.4309C13.8835 12.3932 13.8646 12.3464 13.8646 12.2907C13.8646 12.2349 13.8835 12.1882 13.9212 12.1508C13.9589 12.1133 14.0056 12.0946 14.0611 12.0946H14.6327L15.4407 10.9115M15.4057 12.396C15.4665 12.3352 15.4969 12.2599 15.4969 12.17V11.0517C15.4969 10.996 15.4781 10.9492 15.4407 10.9115M12.7463 16.4782H12.7464C13.3594 16.4782 13.8989 16.2869 14.3707 15.9028C14.8436 15.5179 15.1457 15.0317 15.2803 14.4397L15.2825 14.4298L15.2828 14.4299C15.3082 14.3454 15.3543 14.2707 15.4258 14.2163C15.502 14.1579 15.5919 14.1375 15.6844 14.1507M12.7463 16.4782L15.6854 14.1509C15.6851 14.1508 15.6847 14.1508 15.6844 14.1507M12.7463 16.4782C12.0195 16.4785 11.408 16.227 10.9027 15.7217C10.3975 15.2165 10.1459 14.6048 10.1458 13.8777L12.7463 16.4782ZM15.6844 14.1507C15.7869 14.1645 15.873 14.2184 15.9254 14.3113C15.9731 14.3959 15.9823 14.4889 15.9579 14.5806M15.6844 14.1507L15.9579 14.5806M15.9579 14.5806C15.8008 15.3359 15.4232 15.9584 14.8277 16.4428L14.8276 16.4428C14.2304 16.9283 13.5347 17.1711 12.7467 17.1711L15.9579 14.5806ZM14.122 15.2529C14.1637 15.211 14.1833 15.1635 14.1809 15.1103L14.122 15.2529ZM14.122 15.2529C14.0801 15.2949 14.0336 15.3158 13.9825 15.3158C13.9317 15.3158 13.8855 15.2949 13.8438 15.2529H14.122ZM13.0928 13.7334V12.1095C13.0928 12.0163 13.0599 11.9308 12.9927 11.8636L12.8866 11.9696M13.0928 13.7334L12.5719 13.9469C12.5572 13.9091 12.5499 13.8702 12.5499 13.8302V12.1095C12.5499 12.0537 12.5688 12.0071 12.6065 11.9696C12.6442 11.9322 12.691 11.9133 12.7467 11.913C12.8025 11.913 12.8492 11.9319 12.8866 11.9696M13.0928 13.7334L14.2281 14.8687C14.2921 14.9327 14.3264 15.0136 14.3308 15.103L14.3308 15.1037C14.3352 15.2036 14.296 15.2907 14.2284 15.3587L14.2281 15.359C14.1629 15.4242 14.0798 15.4658 13.9825 15.4658C13.8854 15.4658 13.8025 15.4241 13.7377 15.3589C13.7376 15.3589 13.7375 15.3588 13.7374 15.3587L12.5397 14.161M13.0928 13.7334L12.5397 14.161M12.8866 11.9696L12.9931 11.8639C12.9259 11.7963 12.8403 11.763 12.7467 11.763L12.746 11.7631C12.6531 11.7635 12.5679 11.7965 12.5008 11.8632C12.4332 11.9303 12.3999 12.016 12.3999 12.1095V13.8302C12.3999 13.889 12.4108 13.9463 12.4321 14.0012C12.4557 14.0618 12.4932 14.1148 12.5395 14.1608M12.8866 11.9696L12.5395 14.1608M12.5397 14.161C12.5396 14.1609 12.5396 14.1609 12.5395 14.1608M12.5397 14.161L12.5395 14.1608" fill="#939296" stroke="#939296" stroke-width="0.3"/>
</g>
</g>
</svg>
