<svg width="17" height="15" viewBox="0 0 17 15" fill="none" xmlns="http://www.w3.org/2000/svg">
<path d="M7.77351 11.2187L8.26865 10.2451C7.77953 9.79397 7.31641 9.3193 6.88121 8.8231C7.24461 8.36963 7.58322 7.90429 7.89702 7.42707C8.76789 6.10421 9.44229 4.67888 9.90206 3.1895H11.6797V2.17324H6.73691V0.394775H5.63851V2.17324H0.421143V3.1895H2.47274C3.00928 4.9278 3.83679 6.57762 4.92517 8.07897C5.16977 7.79946 5.40518 7.51317 5.6311 7.22051C4.76418 5.96822 4.08679 4.61194 3.61781 3.1895H8.7575C7.73713 6.28688 5.85548 8.56325 4.41061 9.95779C2.72894 11.5809 1.25438 12.3987 1.23969 12.4068L1.29533 12.4937L1.51954 12.844L1.79894 13.2814C1.86323 13.2463 3.39415 12.4008 5.17612 10.6874C5.52807 10.3491 5.86491 10.0005 6.18664 9.6416C6.68347 10.1942 7.21325 10.7207 7.77351 11.2187Z" fill="#939296"/>
<path d="M11.7702 6.23837C11.4987 6.23837 11.2507 6.39244 11.1304 6.63586V6.63586L7.44474 14.0954C7.26696 14.4552 7.52878 14.8766 7.93011 14.8766V14.8766C8.1361 14.8766 8.32423 14.7597 8.41548 14.575L9.30141 12.782C9.43636 12.5088 9.7146 12.336 10.0192 12.336H13.8892C14.1938 12.336 14.472 12.5088 14.607 12.782L15.4929 14.575C15.5842 14.7597 15.7723 14.8766 15.9783 14.8766V14.8766C16.3796 14.8766 16.6414 14.4552 16.4637 14.0954L12.802 6.68437C12.667 6.41125 12.3888 6.23837 12.0841 6.23837H11.7702ZM11.1304 11.3197V11.3197C10.6208 11.3197 10.2883 10.7846 10.5141 10.3277L11.1304 9.08022L11.2364 8.86576C11.5302 8.27109 12.3782 8.27109 12.672 8.86576L13.3136 10.1643C13.5766 10.6965 13.1894 11.3197 12.5958 11.3197H11.1304Z" fill="#939296"/>
</svg>
